PathFileType	4	(X/Y/Z)	SUBJ11_2_walk_RCNL2025.trc
DataRate	CameraRate	NumFrames	NumMarkers	Units	OrigDataRate	OrigDataStartFrame	OrigNumFrames
100	100	12	25	mm	100	180	478
Frame#	Time	R_Shoulder			L_Shoulder			C7			J_Notch			R_Elbow			L_Elbow			R_Wrist			L_Wrist			R_Asis			L_Asis			Sacral			Thoracic			Sternum			R_Thigh_Lateral			R_Knee_Lateral			R_Shank_Lateral			R_Ankle_Lateral			R_Heel			R_Toe			L_Thigh_Lateral			L_Knee_Lateral			L_Shank_Lateral			L_Ankle_Lateral			L_Heel			L_Toe		
		X1	Y1	Z1	X2	Y2	Z2	X3	Y3	Z3	X4	Y4	Z4	X5	Y5	Z5	X6	Y6	Z6	X7	Y7	Z7	X8	Y8	Z8	X9	Y9	Z9	X10	Y10	Z10	X11	Y11	Z11	X12	Y12	Z12	X13	Y13	Z13	X14	Y14	Z14	X15	Y15	Z15	X16	Y16	Z16	X17	Y17	Z17	X18	Y18	Z18	X19	Y19	Z19	X20	Y20	Z20	X21	Y21	Z21	X22	Y22	Z22	X23	Y23	Z23	X24	Y24	Z24	X25	Y25	Z25
180	1.79000000	-327.896942	1408.205322	98.133324	-282.639801	1420.380249	-293.314362	-343.068115	1463.679932	-99.675453	-207.522461	1347.123535	-83.308136	-465.309814	1086.668945	154.271378	-235.339951	1082.824463	-388.132843	-450.167206	824.096191	145.361080	-60.878872	896.671173	-313.943420	-263.082062	935.068604	50.589756	-255.604752	939.445862	-244.068512	-435.041473	958.540344	-101.754471	-435.296844	1286.299805	-114.575249	-157.995056	1147.591553	-87.335640	-258.989136	588.582825	96.775581	-163.735138	465.790375	37.304283	-100.899155	270.654907	79.635323	-32.021812	77.830612	18.488571	-75.875748	42.775375	-35.723022	104.681122	102.869873	-3.721349	-387.091278	602.623047	-315.414642	-429.954529	454.437195	-229.016083	-500.026642	251.341705	-266.161499	-581.878235	75.439316	-200.007523	-643.730225	80.950462	-155.362244	-455.805908	49.400715	-159.318909
181	1.80000000	-316.088989	1405.342773	100.046211	-270.205750	1417.877441	-291.524567	-330.724670	1461.291138	-97.802437	-195.237350	1344.648438	-81.348457	-453.394318	1083.662842	155.781403	-223.604752	1080.367432	-386.749817	-437.250473	821.150238	146.703903	-48.836798	894.580750	-312.414032	-250.160568	932.418030	51.921227	-243.305420	936.927734	-243.014557	-422.499878	956.340210	-100.008194	-422.853912	1283.911255	-112.989105	-145.346375	1145.077881	-85.679192	-245.103119	587.087952	97.111694	-149.960358	464.153137	37.935444	-88.213005	268.593811	79.503929	-19.949417	75.960228	18.147978	-63.988029	42.049915	-36.413948	117.083694	99.087601	-3.727028	-376.667511	600.952820	-314.742798	-420.489075	453.004913	-228.691406	-494.943634	251.322708	-266.001526	-580.928345	77.478951	-200.195175	-642.764648	84.294098	-155.493637	-455.543427	49.402287	-159.317047
182	1.81000000	-304.115784	1402.723022	102.118805	-257.822388	1415.705811	-289.637970	-318.344666	1459.234253	-95.718094	-182.852081	1342.556519	-79.289352	-441.057281	1080.783813	157.378693	-212.178299	1078.152710	-385.172455	-424.068192	818.322754	148.127045	-37.476518	892.294830	-310.941986	-237.038712	930.281006	53.245064	-230.759949	934.622070	-241.892242	-409.823120	954.523010	-98.389114	-410.320099	1281.848145	-111.262077	-132.456024	1142.984253	-83.880432	-230.177673	586.645020	97.866653	-136.044037	462.959442	39.038010	-76.369881	266.702148	79.557083	-10.174378	73.919746	17.865715	-54.796249	41.665394	-36.974617	127.261421	93.818634	-4.116212	-365.830383	599.402405	-314.064484	-410.403992	451.705322	-228.436203	-489.440704	251.654449	-265.899292	-579.692688	80.066223	-200.446487	-641.450073	88.353607	-155.648331	-455.155853	49.393555	-159.285233
183	1.82000000	-291.978516	1400.439819	104.338371	-245.490112	1413.980713	-287.663879	-305.936768	1457.616943	-93.408012	-170.380676	1340.944946	-77.140045	-428.260864	1078.113159	159.051468	-201.074738	1076.286255	-383.388824	-410.616516	815.690338	149.624260	-26.855727	889.870880	-309.527786	-223.757202	928.815979	54.558159	-217.977829	932.618408	-240.667313	-397.049042	953.176636	-96.936127	-397.719330	1280.224243	-109.398331	-119.358376	1141.417969	-81.930412	-214.492355	587.221924	99.157669	-122.014725	462.361755	40.640518	-65.202293	265.210602	79.913208	-2.491336	71.930771	17.776375	-48.001801	41.732384	-37.292015	135.392700	87.437790	-4.635260	-354.489532	598.017578	-313.381775	-399.569000	450.592743	-228.266693	-483.399414	252.431198	-265.854919	-578.061035	83.306908	-200.735672	-639.633484	93.265610	-155.797623	-454.610382	49.359474	-159.206085
184	1.83000000	-279.690704	1398.595093	106.679657	-233.200684	1412.818481	-285.619659	-293.504272	1456.545532	-90.878120	-157.844620	1339.912109	-74.915756	-414.970978	1075.740845	160.788437	-190.306183	1074.877930	-381.393616	-396.889252	813.339478	151.191261	-17.034606	887.374573	-308.173462	-210.385422	928.148804	55.864647	-204.986862	931.017578	-239.309937	-384.213837	952.384766	-95.677277	-385.078094	1279.142944	-107.418617	-106.102890	1140.480347	-79.834282	-198.377762	588.746765	101.086838	-107.934814	462.472473	42.761959	-54.593735	264.276428	80.680756	3.348222	70.178947	17.954056	-43.208916	42.265923	-37.322517	141.681747	80.506073	-4.990332	-342.533905	596.859558	-312.706207	-387.840698	449.726746	-228.205322	-476.688721	253.758789	-265.860138	-575.899841	87.307655	-201.011292	-637.117798	99.162773	-155.884033	-453.866974	49.286003	-159.064285
185	1.84000000	-267.277374	1397.290283	109.102692	-220.936859	1412.324219	-283.522949	-281.046875	1456.104492	-88.160347	-145.270828	1339.539917	-72.637253	-401.161194	1073.760498	162.578812	-179.878342	1074.032227	-379.190033	-382.878860	811.362915	152.825310	-8.070798	884.877594	-306.882828	-197.006836	928.345947	57.174908	-191.829575	929.926392	-237.802109	-371.341370	952.206055	-94.622520	-372.424835	1278.673828	-105.361923	-92.755020	1140.250854	-77.617134	-182.175858	591.103027	103.701035	-93.931580	463.299957	45.383041	-44.522045	263.915070	81.925766	7.623431	68.762558	18.403578	-39.979187	43.167759	-37.085697	146.350754	73.667389	-4.945611	-329.847076	596.000671	-312.063721	-375.078552	449.165009	-228.281113	-469.176514	255.742615	-265.903992	-573.051453	92.164330	-201.201538	-633.666077	106.150482	-155.822098	-452.873138	49.169823	-158.857635
186	1.85000000	-254.772034	1396.610352	111.556084	-208.677399	1412.573486	-281.384674	-268.570251	1456.333740	-85.312431	-132.689270	1339.872070	-70.330704	-386.823914	1072.260010	164.412262	-169.787613	1073.835693	-376.792542	-368.573792	809.852203	154.525948	-0.012033	882.452515	-305.661377	-183.703094	929.395569	58.501659	-178.556778	929.443420	-236.139740	-358.442352	952.655762	-93.755836	-359.789551	1278.836548	-103.279884	-79.395203	1140.764526	-75.326607	-166.219742	594.124878	106.959183	-80.225998	464.708099	48.421238	-35.089420	263.991669	83.633820	10.626139	67.688805	19.069565	-37.896049	44.272892	-36.648052	149.646240	67.472115	-4.405035	-316.324646	595.509094	-311.493866	-361.163879	448.951843	-228.522568	-460.745605	258.471252	-265.980560	-569.329468	97.947113	-201.231857	-629.015808	114.278152	-155.512115	-451.564789	49.019520	-158.603455
187	1.86000000	-242.211136	1396.608765	113.986481	-196.409500	1413.595093	-279.206177	-256.097992	1457.217041	-82.411240	-120.129997	1340.899048	-68.027397	-371.985504	1071.307739	166.280746	-160.021545	1074.342407	-374.230133	-353.955688	808.884949	156.296745	7.113188	880.166656	-304.515472	-170.548813	931.203552	59.857857	-165.222488	929.638611	-234.330017	-345.522217	953.701416	-93.027336	-347.201324	1279.598145	-101.225418	-66.111900	1141.993286	-73.030365	-150.848267	597.597046	110.710220	-67.135857	466.440033	51.728615	-26.504889	264.291901	85.696907	12.648451	66.911987	19.854618	-36.606991	45.417412	-36.097088	151.847031	62.266010	-3.437828	-301.886932	595.426758	-311.040741	-346.017548	449.107147	-228.943848	-451.300873	261.998199	-266.089111	-564.519836	104.681038	-201.049728	-622.903503	123.511841	-154.864334	-449.868439	48.857124	-158.336121
188	1.87000000	-229.627213	1397.294922	116.349388	-184.143997	1415.360352	-276.982727	-243.676453	1458.687744	-79.540695	-107.621849	1342.560791	-65.762421	-356.714935	1070.940186	168.179993	-150.563477	1075.559937	-371.547119	-339.000473	808.510620	158.144943	13.305158	878.074585	-303.451874	-157.611115	933.609253	61.258869	-151.882324	930.532898	-232.387146	-332.589966	955.271667	-92.354164	-334.684387	1280.883789	-99.241272	-52.987991	1143.849243	-70.808334	-136.431351	601.255249	114.691048	-55.021709	468.202393	55.111862	-18.986660	264.619568	87.933014	13.969782	66.373932	20.640562	-35.838676	46.479633	-35.519672	153.244720	58.195965	-2.244472	-286.482635	595.748230	-310.736816	-329.612518	449.618958	-229.530273	-440.759888	266.321716	-266.222107	-558.401001	112.322739	-200.639343	-615.096558	133.716278	-153.821228	-447.689148	48.734467	-158.106247
189	1.88000000	-217.043320	1398.629272	118.615891	-171.923630	1417.783691	-274.712402	-231.365860	1460.644043	-76.777336	-95.192970	1344.761719	-63.572479	-341.119690	1071.152588	170.110336	-141.398361	1077.442749	-368.799042	-323.685394	808.738678	160.077141	18.598208	876.212158	-302.477951	-144.937546	936.419678	62.727192	-138.592682	932.084900	-230.329727	-319.663757	957.274170	-91.636765	-322.256073	1282.594971	-97.353004	-40.085884	1146.207275	-68.739243	-123.346748	604.793701	118.556831	-44.184296	469.755737	58.360146	-12.637413	264.857483	90.123169	14.833540	66.025055	21.314398	-35.395439	47.389973	-34.993031	154.101517	55.252316	-1.076158	-270.092041	596.417969	-310.585175	-311.980042	450.441895	-230.232254	-429.044739	271.371399	-266.352448	-550.775757	120.747635	-200.015732	-605.424744	144.654190	-152.366531	-444.879425	48.752865	-157.991104
190	1.89000000	-204.472382	1400.527588	120.773621	-159.817780	1420.734375	-272.406799	-219.223770	1462.968506	-74.177238	-82.869789	1347.389404	-61.492916	-325.330200	1071.898804	172.078766	-132.519669	1079.892212	-366.045074	-307.997986	809.534363	162.093674	23.058416	874.593506	-301.603500	-132.536102	939.449951	64.291847	-125.406242	934.193359	-228.180008	-306.773590	959.612366	-90.783951	-309.927124	1284.626831	-95.565994	-27.435743	1148.932861	-66.884171	-111.879173	607.906494	121.950188	-34.773357	470.959747	61.273186	-7.396941	264.975250	92.055511	15.427021	65.828293	21.794550	-35.143913	48.126057	-34.578781	154.622787	53.301441	-0.135136	-252.745026	597.352905	-310.550323	-293.211060	451.507294	-230.973541	-416.090210	277.013428	-266.430511	-541.502319	129.761002	-199.206619	-593.808167	156.006393	-150.517670	-441.204102	49.068157	-158.106491
191	1.90000000	-191.921387	1402.874023	122.822906	-147.905136	1424.054565	-270.098083	-207.291824	1465.543701	-71.767967	-70.673698	1350.329590	-59.553444	-309.477753	1073.097900	174.099716	-123.936295	1082.765991	-363.341003	-291.942291	810.823761	164.185349	26.775492	873.211273	-300.841949	-120.369141	942.553467	65.976929	-112.366982	936.714844	-225.964783	-293.959259	962.195923	-89.734787	-297.704315	1286.882202	-93.864754	-15.030312	1151.901978	-65.273705	-102.104797	610.365295	124.590179	-26.758936	471.770691	63.690723	-3.094234	265.003143	93.569397	15.878561	65.751808	22.044685	-34.992519	48.700298	-34.313793	154.958176	52.128670	0.486033	-234.555420	598.476196	-310.563385	-273.450745	452.746582	-231.670090	-401.863678	283.073792	-266.393097	-530.517517	139.126953	-198.238220	-580.274414	167.408966	-148.309464	-436.330475	49.879578	-158.604233
